<?xml version="1.0" encoding="utf-8"?>
<!-- Generator: Adobe Illustrator 26.3.1, SVG Export Plug-In . SVG Version: 6.00 Build 0)  -->
<svg version="1.1" id="Layer_1" xmlns="http://www.w3.org/2000/svg" xmlns:xlink="http://www.w3.org/1999/xlink" x="0px" y="0px"
	 viewBox="0 0 3000 3000" style="enable-background:new 0 0 3000 3000;" xml:space="preserve">
<style type="text/css">
	.st0{fill:#87604E;}
</style>
<g>
	<path class="st0" d="M1907.6,751.3c6.9-3.1,366.3-159.6,383.4-161.9c49.3-6.5,89.9,26.9,91.9,76.9c1.6,41-14.2,77.2-30.9,113.2
		c-13.1,28.3-111.6,242.3-138.1,303.5c-34.5,79.6-73.1,157.1-109.4,235.8c-22.3,48.3-42.4,97.5-25,151
		c12.8,39.6,116.6,292.9,148.6,362.8c30,65.6,56.3,132.4,80,200.6c9.5,27.4,27.6,52.1,34.5,81.4c8.1,34.6,12.5,68.8,0.8,103.6
		c-13.2,38.9-48.6,55.5-88.3,45c-79.7-21-1576.5-759.2-1600.6-772.7c-39.5-22.2-57.1-58.3-68.4-98.2c-9.4-33.4,16.1-73.2,55.4-95.3
		c89.2-50.3,185.7-84.2,278.8-125.7c49.3-22,303.8-130.6,382.7-160.5C1339.1,997.1,1859.8,772.8,1907.6,751.3z"/>
</g>
</svg>
